<?xml version="1.0" encoding="utf-8"?>
<!-- Generated by IcoMoon.io -->
<!DOCTYPE svg PUBLIC "-//W3C//DTD SVG 1.1//EN" "http://www.w3.org/Graphics/SVG/1.1/DTD/svg11.dtd">
<svg version="1.1" xmlns="http://www.w3.org/2000/svg" xmlns:xlink="http://www.w3.org/1999/xlink" width="32" height="32" viewBox="0 0 32 32">
<path fill="#000" d="M26.625 7.5h-21.25c-2.137 0-3.875 1.738-3.875 3.875v11.25c0 2.137 1.738 3.875 3.875 3.875h21.25c2.137 0 3.875-1.738 3.875-3.875v-11.25c0-2.137-1.738-3.875-3.875-3.875zM28.459 23.012l-5.981-6.381 6.022-4.29v10.284c0 0.133-0.015 0.262-0.041 0.387zM26.625 9.5c0.584 0 1.1 0.273 1.443 0.693l-11.689 8.327-12.054-8.697c0.3-0.204 0.661-0.323 1.050-0.323h21.25zM3.511 22.733c-0.002-0.036-0.011-0.071-0.011-0.108v-10.931l6.599 4.761-6.588 6.278zM5.375 24.5c-0.241 0-0.469-0.050-0.68-0.133l7.053-6.723 4.623 3.336 4.463-3.179 6.228 6.642c-0.141 0.034-0.286 0.057-0.437 0.057h-21.25z"></path>
</svg>
